<svg width="17" height="19" viewBox="0 0 17 19" fill="none" xmlns="http://www.w3.org/2000/svg">
<path d="M2 4.99854C2 3.59407 2 2.89184 2.33706 2.38739C2.48298 2.16901 2.67048 1.98151 2.88886 1.8356C3.39331 1.49854 4.09554 1.49854 5.5 1.49854H12.5C13.9045 1.49854 14.6067 1.49854 15.1111 1.8356C15.3295 1.98151 15.517 2.16901 15.6629 2.38739C16 2.89184 16 3.59407 16 4.99854V13.9985C16 15.403 16 16.1052 15.6629 16.6097C15.517 16.8281 15.3295 17.0156 15.1111 17.1615C14.6067 17.4985 13.9045 17.4985 12.5 17.4985H5.5C4.09554 17.4985 3.39331 17.4985 2.88886 17.1615C2.67048 17.0156 2.48298 16.8281 2.33706 16.6097C2 16.1052 2 15.403 2 13.9985V4.99854Z" stroke="white" stroke-width="1.5"/>
<path d="M7 5.49854H11" stroke="white" stroke-width="1.5" stroke-linecap="round"/>
<path d="M7 9.49854H11" stroke="white" stroke-width="1.5" stroke-linecap="round"/>
<path d="M7 13.4985H11" stroke="white" stroke-width="1.5" stroke-linecap="round"/>
<path d="M1 7.49854H3" stroke="white" stroke-width="1.5" stroke-linecap="round"/>
<path d="M1 11.4985H3" stroke="white" stroke-width="1.5" stroke-linecap="round"/>
</svg>
